<svg xmlns="http://www.w3.org/2000/svg" viewBox="0 0 112.95 112.95"><defs><style>.cls-1{fill:#ffe701;}.cls-2{fill-rule:evenodd;}.cls-3{fill:#ec1b23;}</style></defs><g id="Capa_2" data-name="Capa 2"><g id="Capa_2-2" data-name="Capa 2"><path id="path3122" class="cls-1" d="M113,56.48A56.48,56.48,0,1,1,56.48,0,56.47,56.47,0,0,1,113,56.48Z"/><path id="path3060" d="M107,44.59a2.86,2.86,0,1,0,2.87,2.86A2.85,2.85,0,0,0,107,44.59Zm0,.57a2.29,2.29,0,1,1-2.29,2.29A2.29,2.29,0,0,1,107,45.16Z"/><path id="path2995" class="cls-2" d="M20.08,44.68l-.2,0h-.55a7.42,7.42,0,0,0-1.31.17h0a8.25,8.25,0,0,0-2.69.91,9,9,0,0,0-1.76,1.08l0,0A11.48,11.48,0,0,0,9.34,53s0,0,0,0a13.21,13.21,0,0,0-.56,3.82,12.09,12.09,0,0,0,3.79,9,8.63,8.63,0,0,0,1.09.92,7.4,7.4,0,0,0,1.49.82l0,0a11.6,11.6,0,0,0,4.9.94c.32,0,.63,0,.94,0h0a5.81,5.81,0,0,0,.92,0l.28,0a9.69,9.69,0,0,0,9-8h0l.06-.22H25.13a4.39,4.39,0,0,1-3.51,2.78h-.07a5.88,5.88,0,0,1-1.12.1A4.68,4.68,0,0,1,19,63a4,4,0,0,1-2.78-2.66l0-.07c0-.05,0-.1,0-.15l-.06-.29a8,8,0,0,1-.12-1.2v0H31.58c0-.34.05-.7.05-1.06s0-.68-.05-1v0a11.85,11.85,0,0,0-.25-2.08,11.15,11.15,0,0,0-2-5.27l0,0a10.52,10.52,0,0,0-8.65-4.44h-.23a2,2,0,0,0-.36,0Zm.29,5.53a3.8,3.8,0,0,1,1.32.19A3.93,3.93,0,0,1,24.38,54H15.94a4.09,4.09,0,0,1,3.35-3.63h.06a4.88,4.88,0,0,1,1-.1Z"/><path id="rect3149" d="M29.63,45.21l3.81,5.47v0l3.64,5.4-4.37,6.5h0l-1.5,2.22L29,68.09h8l4.25-6.35,4.12,6.18.07.11h8.14l-3.9-5.63h0l-4.39-6.52L49,50.62v.06l1.64-2.39,2.13-3.08H44.69l-3.4,5.13-3.47-5.13Zm8.09,0-.35.26v0l.36-.24Z"/><path id="rect3212" d="M54.08,45.21,55.37,68H62l1.29-22.81H54.08Z"/><path id="path3244" class="cls-3" d="M63,73.44a4.31,4.31,0,1,1-8.61,0h0a4.31,4.31,0,1,1,8.61,0Z"/><path id="rect3246" d="M68.31,38.71v6.48H64.68v5.1h3.63V63h0a2.93,2.93,0,0,0,0,.53,2.51,2.51,0,0,0,.1.68h0a4.69,4.69,0,0,0,2.87,3.44l.23.11.2.07.08,0a6.21,6.21,0,0,0,1.64.34h0a16.35,16.35,0,0,0,1.93.11c.52,0,1,0,1.5-.06s.7,0,1.08,0a10.74,10.74,0,0,0,1.76-.27V66.57h0V62.14h-.24l-.2.09h0a6.73,6.73,0,0,1-3.29.07s0,0,0,0a.57.57,0,0,1-.56-.58.68.68,0,0,1,0-.14V50.29h4.31v-5.1H75.42V38.71Z"/><path id="path3011" d="M92.37,44.55a12.25,12.25,0,0,0-8.3,3.05l-.25.23c-.21.21-.41.42-.6.65l0,0a.86.86,0,0,1-.07.1l-.17.22,0,.07-.2.28-.07.1-.25.39a14.36,14.36,0,0,0,0,14l.25.39.27.38c.08.12.17.23.26.34l0,0,0,0a8,8,0,0,0,.85.89l0,0a12.83,12.83,0,0,0,16.54,0l0,0a9,9,0,0,0,.85-.89l0,0h0l0,0,.26-.34c.09-.12.18-.25.26-.38s.17-.26.25-.39a14.36,14.36,0,0,0,0-14c-.08-.13-.16-.26-.25-.39s-.31-.45-.48-.67l-.07-.08,0,0c-.19-.23-.4-.44-.61-.65l-.11-.11-.13-.12a12.27,12.27,0,0,0-8.3-3.05Zm0,5.64A4.51,4.51,0,0,1,96,52a2,2,0,0,1,.17.23c.08.12.16.24.24.38l.09.22.06.12c0,.12.1.24.14.37s.08.22.11.33v0a11.26,11.26,0,0,1,0,6s0,.05,0,.08l0,.05c0,.13-.08.26-.13.38s0,0,0,0,0,0,0,.06a3.62,3.62,0,0,1-.61,1l0,.05,0,0a4.48,4.48,0,0,1-7.09-.19,1.92,1.92,0,0,1-.16-.21h0a3.37,3.37,0,0,1-.19-.32l0-.05,0,0a4.62,4.62,0,0,1-.44-1.23v0a10.7,10.7,0,0,1-.33-2.71,10.56,10.56,0,0,1,.33-2.7s0,0,0,0a4.57,4.57,0,0,1,.64-1.58,2.4,2.4,0,0,1,.18-.26,4.51,4.51,0,0,1,3.65-1.89Z"/><path id="rect3066" d="M21.38,38.71l-3.63,4.61h4.52l6-4.61Z"/></g></g></svg>