<svg xmlns="http://www.w3.org/2000/svg" viewBox="">
	<defs>
		<style>
			.cls-1 {
			fill: #613980;
			}
			.cls-3 {
			fill: #613980;
			}
			.cls-4,
			.cls-8,
			.cls-9 {
			fill:#613980		
            }

		</style>
	</defs>
	<g id="Capa_2" data-name="Capa 2">
		<g id="Capa_2-2" data-name="Capa 2">
			<circle class="cls-9" cx="50.87" cy="67.83" r="0.82" />
			<circle class="cls-9" cx="50.87" cy="57.29" r="0.82" />
			<path class="cls-9" d="M56.14,63.37a.83.83,0,0,0,0-1.65.83.83,0,0,0,0,1.65Z" />
			<polygon class="cls-9" points="18.02 56.48 16.36 56.48 16.36 61.73 11.11 61.73 11.11 63.39 16.36 63.39 16.36 68.63 18.02 68.63 18.02 63.39 23.26 63.39 23.26 61.73 18.02 61.73 18.02 56.48" />
			<rect class="cls-9" x="32.32" y="48.27" width="3.52" height="1.21" />
			<path class="cls-9" d="M37,22.41v7.28a3.7,3.7,0,0,1-3.7,3.7H25.67a1.58,1.58,0,0,0,0,3.16H45.08a3.5,3.5,0,0,1,0,7H36.75a1.5,1.5,0,0,0-1.5,1.5v1.22h2.59v3.2h13.1A13.13,13.13,0,1,1,39.45,68.93H28.71A13.12,13.12,0,1,1,17.19,49.48H30.33v-3.2h2.92V45.06a3.5,3.5,0,0,1,3.5-3.5h8.33a1.51,1.51,0,0,0,0-3H25.67a3.58,3.58,0,0,1,0-7.16h7.64a1.7,1.7,0,0,0,1.7-1.7V22.3c-.32,0-.64,0-1,0a34.16,34.16,0,1,0,3,.14Z" />
			<path class="cls-9" d="M17.2,51.48a11.13,11.13,0,1,0,10,16l.27-.56h13.2l.27.56a11.12,11.12,0,1,0,10-16H17.2Zm8.06,13.9H20v5.25H14.36V65.38H9.11V59.73h5.25V54.49H20v5.24h5.25Zm25.61,5.27a2.82,2.82,0,1,1,2.82-2.82A2.83,2.83,0,0,1,50.87,70.65Zm5.27-10.92a2.82,2.82,0,1,1-2.82,2.82A2.82,2.82,0,0,1,56.14,59.73Zm-5.27-5.26a2.82,2.82,0,1,1-2.82,2.82A2.82,2.82,0,0,1,50.87,54.47ZM45.6,59.73a2.82,2.82,0,1,1-2.82,2.82A2.82,2.82,0,0,1,45.6,59.73ZM33.12,63.46H29.54v-2h3.58Zm5.69,0H35.24v-2h3.57Zm.92-9.65v2H28.63v-2Z" />
			<path class="cls-9" d="M45.6,63.37a.83.83,0,1,0-.82-.82A.82.82,0,0,0,45.6,63.37Z" />
		</g>
	</g>
</svg>
