<svg xmlns="http://www.w3.org/2000/svg" viewBox="0 0 336.74 112.95"><defs><style>.cls-1{fill:#ffe701;}.cls-2{fill-rule:evenodd;}.cls-3{fill:#ec1b23;}.cls-4{font-size:24.94px;}.cls-4,.cls-8,.cls-9{fill:#fff;}.cls-4,.cls-8{font-family:SequelSans-BookDisp, Sequel Sans;}.cls-5{letter-spacing:-0.01em;}.cls-6{letter-spacing:-0.01em;}.cls-7{letter-spacing:0em;}.cls-8{font-size:44.18px;}</style></defs><g id="Capa_2" data-name="Capa 2"><g id="Capa_2-2" data-name="Capa 2"><path id="path3122" class="cls-1" d="M336.74,56.48A56.48,56.48,0,1,1,280.27,0,56.47,56.47,0,0,1,336.74,56.48Z"/><path id="path3060" d="M330.76,44.59a2.86,2.86,0,1,0,2.87,2.86A2.85,2.85,0,0,0,330.76,44.59Zm0,.57a2.29,2.29,0,1,1-2.29,2.29A2.29,2.29,0,0,1,330.78,45.16Z"/><path id="path2995" class="cls-2" d="M243.87,44.68l-.2,0h-.55a7.42,7.42,0,0,0-1.31.17h0a8.25,8.25,0,0,0-2.69.91,9,9,0,0,0-1.76,1.08l0,0A11.48,11.48,0,0,0,233.13,53s0,0,0,0a13.21,13.21,0,0,0-.56,3.82,12.09,12.09,0,0,0,3.79,9,8.63,8.63,0,0,0,1.09.92,7.4,7.4,0,0,0,1.49.82l0,0a11.6,11.6,0,0,0,4.9.94c.32,0,.63,0,.94,0h0a5.81,5.81,0,0,0,.92,0l.28,0a9.69,9.69,0,0,0,9-8h0l.06-.22h-6.14a4.39,4.39,0,0,1-3.51,2.78h-.07a5.88,5.88,0,0,1-1.12.1,4.68,4.68,0,0,1-1.46-.18A4,4,0,0,1,240,60.35l0-.07c0-.05,0-.1,0-.15l-.06-.29a8,8,0,0,1-.12-1.2v0h15.64c0-.34,0-.7,0-1.06s0-.68,0-1v0a11.85,11.85,0,0,0-.25-2.08,11.15,11.15,0,0,0-2-5.27v0a10.55,10.55,0,0,0-8.66-4.44h-.23a2,2,0,0,0-.36,0Zm.29,5.53a3.8,3.8,0,0,1,1.32.19A3.93,3.93,0,0,1,248.17,54h-8.44a4.09,4.09,0,0,1,3.35-3.63h.06a4.88,4.88,0,0,1,1-.1Z"/><path id="rect3149" d="M253.42,45.21l3.81,5.47v0l3.64,5.4-4.37,6.5h0L255,64.79l-2.22,3.3h8L265,61.74l4.12,6.18.07.11h8.14l-3.9-5.63h0l-4.39-6.52,3.71-5.27v.06l1.64-2.39,2.13-3.08h-8.08l-3.39,5.13-3.48-5.13Zm8.09,0-.35.26v0l.36-.24Z"/><path id="rect3212" d="M277.87,45.21,279.16,68h6.67l1.29-22.81h-9.25Z"/><path id="path3244" class="cls-3" d="M286.8,73.44a4.31,4.31,0,1,1-8.62,0h0a4.31,4.31,0,1,1,8.62,0Z"/><path id="rect3246" d="M292.1,38.71v6.48h-3.63v5.1h3.63V63h0a2.93,2.93,0,0,0,0,.53,2.51,2.51,0,0,0,.1.68h0a4.69,4.69,0,0,0,2.87,3.44l.23.11.2.07.08,0a6.21,6.21,0,0,0,1.64.34h0a16.35,16.35,0,0,0,1.93.11c.52,0,1,0,1.5-.06s.7,0,1.08,0a10.74,10.74,0,0,0,1.76-.27V66.57h0V62.14h-.24l-.2.09h0a6.73,6.73,0,0,1-3.29.07s0,0,0,0a.57.57,0,0,1-.56-.58.68.68,0,0,1,0-.14V50.29h4.31v-5.1h-4.31V38.71Z"/><path id="path3011" d="M316.16,44.55a12.25,12.25,0,0,0-8.3,3.05l-.25.23c-.21.21-.41.42-.6.65l0,0a.86.86,0,0,1-.07.1l-.17.22-.05.07-.2.28-.07.1-.25.39a14.36,14.36,0,0,0,0,14l.25.39.27.38c.08.12.17.23.26.34l0,0,0,0a8,8,0,0,0,.85.89l0,0a12.83,12.83,0,0,0,16.54,0l0,0a9,9,0,0,0,.85-.89l0,0h0s0,0,0,0l.26-.34c.09-.12.18-.25.26-.38s.17-.26.25-.39a14.36,14.36,0,0,0,0-14c-.08-.13-.16-.26-.25-.39s-.31-.45-.48-.67l-.06-.08,0,0c-.19-.23-.4-.44-.61-.65l-.11-.11-.13-.12a12.27,12.27,0,0,0-8.3-3.05Zm0,5.64A4.51,4.51,0,0,1,319.74,52a2,2,0,0,1,.17.23c.08.12.16.24.24.38l.09.22.06.12c.05.12.1.24.14.37s.08.22.11.33v0a11.26,11.26,0,0,1,0,6s0,.05,0,.08l0,.05c0,.13-.08.26-.13.38s0,0,0,0l0,.06a3.62,3.62,0,0,1-.61,1l0,.05,0,0a4.48,4.48,0,0,1-7.09-.19,1.92,1.92,0,0,1-.16-.21h0a3.37,3.37,0,0,1-.19-.32l0-.05,0,0a4.62,4.62,0,0,1-.44-1.23v0a10.7,10.7,0,0,1-.33-2.71,10.56,10.56,0,0,1,.33-2.7s0,0,0,0a4.57,4.57,0,0,1,.64-1.58,2.4,2.4,0,0,1,.18-.26,4.51,4.51,0,0,1,3.65-1.89Z"/><path id="rect3066" d="M245.17,38.71l-3.63,4.61h4.52l6-4.61Z"/><text class="cls-4" transform="translate(79.2 28.02)"><tspan class="cls-5">r</tspan><tspan x="8.4" y="0">egi</tspan><tspan class="cls-6" x="39.68" y="0">s</tspan><tspan x="51.25" y="0">t</tspan><tspan class="cls-5" x="59.15" y="0">r</tspan><tspan class="cls-7" x="67.56" y="0">o</tspan></text><text class="cls-8" transform="translate(77.44 65.67)">gaming</text><circle class="cls-9" cx="50.87" cy="67.83" r="0.82"/><circle class="cls-9" cx="50.87" cy="57.29" r="0.82"/><path class="cls-9" d="M56.14,63.37a.83.83,0,0,0,0-1.65.83.83,0,0,0,0,1.65Z"/><polygon class="cls-9" points="18.02 56.48 16.36 56.48 16.36 61.73 11.11 61.73 11.11 63.39 16.36 63.39 16.36 68.63 18.02 68.63 18.02 63.39 23.26 63.39 23.26 61.73 18.02 61.73 18.02 56.48"/><rect class="cls-9" x="32.32" y="48.27" width="3.52" height="1.21"/><path class="cls-9" d="M37,22.41v7.28a3.7,3.7,0,0,1-3.7,3.7H25.67a1.58,1.58,0,0,0,0,3.16H45.08a3.5,3.5,0,0,1,0,7H36.75a1.5,1.5,0,0,0-1.5,1.5v1.22h2.59v3.2h13.1A13.13,13.13,0,1,1,39.45,68.93H28.71A13.12,13.12,0,1,1,17.19,49.48H30.33v-3.2h2.92V45.06a3.5,3.5,0,0,1,3.5-3.5h8.33a1.51,1.51,0,0,0,0-3H25.67a3.58,3.58,0,0,1,0-7.16h7.64a1.7,1.7,0,0,0,1.7-1.7V22.3c-.32,0-.64,0-1,0a34.16,34.16,0,1,0,3,.14Z"/><path class="cls-9" d="M17.2,51.48a11.13,11.13,0,1,0,10,16l.27-.56h13.2l.27.56a11.12,11.12,0,1,0,10-16H17.2Zm8.06,13.9H20v5.25H14.36V65.38H9.11V59.73h5.25V54.49H20v5.24h5.25Zm25.61,5.27a2.82,2.82,0,1,1,2.82-2.82A2.83,2.83,0,0,1,50.87,70.65Zm5.27-10.92a2.82,2.82,0,1,1-2.82,2.82A2.82,2.82,0,0,1,56.14,59.73Zm-5.27-5.26a2.82,2.82,0,1,1-2.82,2.82A2.82,2.82,0,0,1,50.87,54.47ZM45.6,59.73a2.82,2.82,0,1,1-2.82,2.82A2.82,2.82,0,0,1,45.6,59.73ZM33.12,63.46H29.54v-2h3.58Zm5.69,0H35.24v-2h3.57Zm.92-9.65v2H28.63v-2Z"/><path class="cls-9" d="M45.6,63.37a.83.83,0,1,0-.82-.82A.82.82,0,0,0,45.6,63.37Z"/></g></g></svg>