<svg xmlns="http://www.w3.org/2000/svg" viewBox="0 0 34.13 46.8"><defs><style>.cls-1{fill:#999;}</style></defs><g id="Capa_2" data-name="Capa 2"><g id="Capa_2-2" data-name="Capa 2"><path class="cls-1" d="M29.29,19.65H25.62v-.6c0-2.16,0-4.33,0-6.49a8.53,8.53,0,0,0-17-1.44,50.93,50.93,0,0,0-.13,5.1c0,1.12,0,2.25,0,3.41H4.87a2,2,0,0,1,0-.35c0-2.57-.09-5.15.06-7.71A11.59,11.59,0,0,1,11.47,1.41,12.1,12.1,0,0,1,27.74,6.28a11,11,0,0,1,1.54,5.38C29.33,14.3,29.29,17,29.29,19.65Z"/><path class="cls-1" d="M0,19.65V46.8H34.13V19.65ZM19.16,35.18a.59.59,0,0,0-.43.65c0,1.57,0,3.14,0,4.75H15.41c0-1.5,0-3,0-4.44a1,1,0,0,0-.67-1.07,5.29,5.29,0,0,1-2.63-6.79,5.34,5.34,0,1,1,7,6.9Z"/><path class="cls-1" d="M19.08,30.29a2,2,0,0,1-2,2,2,2,0,0,1-2-2,2,2,0,0,1,2-2A2,2,0,0,1,19.08,30.29Z"/></g></g></svg>