<svg xmlns="http://www.w3.org/2000/svg" viewBox="0 0 33.44 24.52"><defs><style>.cls-1{fill:#f2f2f2;}</style></defs><g id="Capa_2" data-name="Capa 2"><g id="Capa_2-2" data-name="Capa 2"><path class="cls-1" d="M33.29.37a.85.85,0,0,0-.7-.37H11.27a.85.85,0,0,0-.7.37.84.84,0,0,0-.09.77l.83,2.18c1,2.69,2,5.23,3,7.81a2.21,2.21,0,0,0,1.88,1.1c1.84,0,3.71,0,5.58,0s3.91,0,5.85,0a2.18,2.18,0,0,0,1.88-1.09c1-2.58,2-5.13,3-7.83l.82-2.17A.81.81,0,0,0,33.29.37Z"/><path class="cls-1" d="M30,16.4H13.17A2.36,2.36,0,0,1,11,14.93L5.87,2.45H1.18a1.18,1.18,0,0,1,0-2.36H5.86A2.34,2.34,0,0,1,8.05,1.56L13.16,14H30a1.18,1.18,0,0,1,0,2.36Z"/><circle class="cls-1" cx="14.82" cy="21.73" r="2.79"/><circle class="cls-1" cx="25.89" cy="21.73" r="2.79"/></g></g></svg>