<svg xmlns="http://www.w3.org/2000/svg" viewBox="0 0 511.81 511.81">
	<defs>
		<style>
			.cls-1{fill:#945fbd;}.cls-2{fill:#e85840;}.cls-3{fill:#e4e4e4;}.cls-4{fill:#fee7bd;}.cls-5{fill:#47454a;}.cls-6{fill:#666f78;}.cls-7{fill:#434955;}.cls-8{fill:#dec492;}.cls-9{fill:#fdfdfd;}
		</style>
	</defs>
	<g id="Capa_2" data-name="Capa 2">
		<g id="Capa_4" data-name="Capa 4">
			<path class="cls-1" d="M0,283.89v-56a6.73,6.73,0,0,0,.72.6s.29-.18.35-.32c1.46-3.08,1.14-6.5,1.67-9.74Q21.55,102.38,120.46,38.9c31.82-20.47,66.87-32.44,104.44-37,1-.13,3.5,1.1,3-1.86h56a8.07,8.07,0,0,0-.58.73s.19.32.32.34c6.37,1.06,12.77,2,19.1,3.16C413.36,25.31,496.34,114,510,225.61c.14,1.14-.86,3.35,1.8,3.3v55c-.34-.17-.52-1-1.08-.29a1.84,1.84,0,0,0-.47.83,261.61,261.61,0,0,1-5.44,30.95c-10,40.94-28.4,77.57-56.73,109-1.6-7.19-5.35-13.55-7.85-20.4a4.7,4.7,0,0,0-2.91-2.53Q398.15,384.09,359,366.7c-.34-1.82-.87-3.44-2.64-4.53C345.65,355.61,335,349,324.3,342.36q-.18-9.86-.37-19.69c.74-1.29,1.38-2.66,2.24-3.87a199.81,199.81,0,0,0,25-48.61c1.55-4.31,3-8.09,7.94-9.83,2.28-.79,4.21-3.24,5.78-5.33,8.49-11.26,13-23.88,12-38.12-.46-7.22-3.33-13.14-9.75-17,1.46-13.26,2.35-26.51.71-39.84-3.28-26.77-13.49-50.17-34.16-68C305.32,67.58,272,60.55,235.66,67c-46.79,8.32-80.68,45.14-85.91,92.23-1.53,13.69-.61,27.26.35,40.87a19.35,19.35,0,0,0-9.22,15.24c-1.6,16,3.61,29.8,13.82,41.92,1.73,2.05,3.82,3.92,6.46,4.53,3,.68,3.85,2.71,4.69,5.17,4.55,13.26,9.39,26.68,17.59,37.93,8.5,11.65,10.48,23.91,9.2,37.46C182,349,171.28,355.66,160.56,362.25a6.15,6.15,0,0,0-2.72,4.48Q118.95,384,80.05,401.22a7.1,7.1,0,0,0-4,4.1c-3,7.55-6.09,15.06-9.15,22.59-10.49-10.53-19.14-22.5-27.07-35a252.62,252.62,0,0,1-37.94-106C1.72,285.89,3,283.43,0,283.89Z" />
			<path class="cls-2" d="M276.89,511.81h-37c.32-2,.71-3.93.94-5.9,2.23-19.33,4.2-38.69,6.78-58,.89-6.67.29-11.89-5.86-15.78-3.19-2-5.84-4.89-8.73-7.38.58-1.87,2.27-2.76,3.58-4,7.06-6.44,14.17-12.83,21.26-19.24l2,.15c1.33,1.24,2.67,2.48,4,3.73,6.83,6.49,14.4,12.16,20.66,19.25-4.48,3.93-8.9,7.94-13.47,11.77a5.25,5.25,0,0,0-1.93,5.21Q273.07,476.75,276.89,511.81Z" />
			<path class="cls-3" d="M233,424.78c2.89,2.49,5.54,5.36,8.73,7.38,6.15,3.89,6.75,9.11,5.86,15.78-2.58,19.28-4.55,38.64-6.78,58-.23,2-.62,3.93-.94,5.9h-12c1.13-2.51-1.23-1.57-1.92-1.7-4.15-.76-8.33-1.31-12.5-1.93-3.57-19.7-7.06-39.41-9.77-59.26,1.79-.17,2.88-1.46,4.16-2.5C216.5,439.47,224,431.25,233,424.78Z" />
			<path class="cls-3" d="M276.89,511.81q-3.87-35.07-7.78-70.12a5.25,5.25,0,0,1,1.93-5.21c4.57-3.83,9-7.84,13.47-11.77,5.41,4.82,10.75,9.75,16.27,14.45,4,3.39,7.36,7.55,12.29,9.75-2.57,19.6-6.27,39-9.64,58.48q-9.75,1.5-19.5,3c-.13,0-.23.21-.35.31-.69.59.16.73.31,1.08Z" />
			<path class="cls-4" d="M259.87,401.73l-2-.15c-.34-1.41-1.44-2.15-2.49-3-11.89-9.64-23.64-19.45-35.66-28.92-8.87-7-17.21-14.66-26.69-20.87l-.4-6.42c1.28-13.55-.7-25.81-9.2-37.46-8.2-11.25-13-24.67-17.59-37.93-.84-2.46-1.74-4.49-4.69-5.17-2.64-.61-4.73-2.48-6.46-4.53-10.21-12.12-15.42-25.93-13.82-41.92a19.35,19.35,0,0,1,9.22-15.24c1.24,5.83,2.71,11.63,3.63,17.51.6,3.78,2.62,5.62,5.89,7.14,3.57,1.65,4,1,3.66-2.75-1.84-21.29-2-42.57,1.66-63.72,2.28-13.21,5.92-25.92,14.2-36.86,1.6-2.12,2.72-2.66,5-.61,7.28,6.53,15.87,10.88,25,14.24,21.52,7.92,43.79,9.65,66.39,7.43,18.73-1.84,36.56-6.76,52.53-17.33,2.84-1.88,5-6.76,8.61-5.15,3.22,1.43,4.88,5.71,6.6,9.14,1.34,2.67,2.61,5.39,3.69,8.17,5.09,13.18,7,27,7.88,41a305.76,305.76,0,0,1-1,47.68c5.38-1.44,9.51-3.18,10.17-9.43.58-5.6,2.08-11.1,3.17-16.64,6.42,3.84,9.29,9.76,9.75,17,.91,14.24-3.55,26.86-12,38.12-1.57,2.09-3.5,4.54-5.78,5.33-5,1.74-6.39,5.52-7.94,9.83a199.81,199.81,0,0,1-25,48.61c-.86,1.21-1.5,2.58-2.24,3.87-1,1.08-2.1,2.12-3.08,3.23-8.32,9.32-16.79,18.48-27.59,25.06-16.67,10.17-34.21,14.44-53.33,7.79-14.17-4.93-25.7-13.67-35.66-24.72-2.37-2.62-4.49-5.56-8.32-8.08,1.05,6.72,3.92,11.69,6.74,16.7C217,368,244.46,380.31,273.3,376.44c7.49-1,14.28-4.39,21.71-5.34-8.28,8-17.7,14.57-26.34,22.1C265.61,395.87,261.53,397.58,259.87,401.73Z" />
			<path class="cls-5" d="M367.19,199.93c-1.09,5.54-2.59,11-3.17,16.64-.66,6.25-4.79,8-10.17,9.43a305.76,305.76,0,0,0,1-47.68c-.85-14-2.79-27.81-7.88-41-1.08-2.78-2.35-5.5-3.69-8.17-1.72-3.43-3.38-7.71-6.6-9.14-3.65-1.61-5.77,3.27-8.61,5.15-16,10.57-33.8,15.49-52.53,17.33-22.6,2.22-44.87.49-66.39-7.43-9.12-3.36-17.71-7.71-25-14.24-2.28-2-3.4-1.51-5,.61-8.28,10.94-11.92,23.65-14.2,36.86-3.67,21.15-3.5,42.43-1.66,63.72.32,3.73-.09,4.4-3.66,2.75-3.27-1.52-5.29-3.36-5.89-7.14-.92-5.88-2.39-11.68-3.63-17.51-1-13.61-1.88-27.18-.35-40.87C155,112.16,188.87,75.34,235.66,67c36.37-6.47,69.66.56,98.08,25.08,20.67,17.82,30.88,41.22,34.16,68C369.54,173.42,368.65,186.67,367.19,199.93Z" />
			<path class="cls-6" d="M181.93,500.83c-12.59-3-24.38-8.08-36-13.67a259.37,259.37,0,0,1-73.64-52.83c-2-2-4.12-3.86-5.43-6.42,3.06-7.53,6.15-15,9.15-22.59a7.1,7.1,0,0,1,4-4.1q38.9-17.22,77.79-34.49c-.12,1.32-.17,2.65-.36,4-2.17,14.77-4.24,29.56-6.64,44.3-.71,4.29.83,5.08,4.64,5,9.31-.19,18.62-.08,27.94,0,1.25,0,3-.57,3.57.93s-1.33,2-2.31,2.76q-14.93,10.85-29.9,21.6c-1.53,1.1-3.05,2-1.68,4.34C162.87,466.58,171.61,484.15,181.93,500.83Z" />
			<path class="cls-6" d="M448.09,424.37c-9.67,12.64-21.58,23-34,32.75-23.3,18.35-48.92,32.52-77.22,41.64.81-3.83,3.06-7,4.91-10.3,7-12.66,14-25.33,21.21-37.9,1.69-3,1.25-4.62-1.58-6.45-5-3.26-9.89-6.76-14.65-10.39-5.84-4.45-12.33-8.07-18.43-13.88,11.91,0,22.72-.11,33.52.06,3.76.06,4.84-.89,4.2-4.88C363.5,399,361.32,382.81,359,366.7q39.17,17.37,78.33,34.74a4.7,4.7,0,0,1,2.91,2.53C442.74,410.82,446.49,417.18,448.09,424.37Z" />
			<path class="cls-7" d="M181.93,500.83c-10.32-16.68-19.06-34.25-28.83-51.24-1.37-2.38.15-3.24,1.68-4.34q15-10.77,29.9-21.6c1-.72,2.89-1.15,2.31-2.76s-2.32-.93-3.57-.93c-9.32,0-18.63-.16-27.94,0-3.81.08-5.35-.71-4.64-5,2.4-14.74,4.47-29.53,6.64-44.3.19-1.31.24-2.64.36-4a6.15,6.15,0,0,1,2.72-4.48c10.72-6.59,21.39-13.25,32.08-19.88.13,2.14.27,4.28.4,6.43,0,14.5,1.45,28.91,2.94,43.31,2,19,4.12,38,7.74,56.81,2.71,19.85,6.2,39.56,9.77,59.26A129.23,129.23,0,0,1,181.93,500.83Z" />
			<path class="cls-7" d="M359,366.7c2.32,16.11,4.5,32.25,7.07,48.32.64,4-.44,4.94-4.2,4.88-10.8-.17-21.61-.06-33.52-.06,6.1,5.81,12.59,9.43,18.43,13.88,4.76,3.63,9.63,7.13,14.65,10.39,2.83,1.83,3.27,3.49,1.58,6.45-7.18,12.57-14.18,25.24-21.21,37.9-1.85,3.33-4.1,6.47-4.91,10.3a163.74,163.74,0,0,1-33.46,8.63c3.37-19.47,7.07-38.88,9.64-58.48,2.94-14.45,4.62-29.1,6.33-43.72,2.2-18.77,4.26-37.56,4.42-56.48l.48-6.35c10.68,6.61,21.35,13.25,32.06,19.81C358.13,363.26,358.66,364.88,359,366.7Z" />
			<path class="cls-8" d="M324.3,342.36l-.48,6.35c-9.24,6-16.94,13.87-25.88,20.22l-1.09.9h0c-.62.39-1.24.78-1.85,1.18v.1c-7.43.95-14.22,4.34-21.71,5.34-28.84,3.87-56.31-8.44-70.61-33.79-2.82-5-5.69-10-6.74-16.7,3.83,2.52,6,5.46,8.32,8.08,10,11.05,21.49,19.79,35.66,24.72,19.12,6.65,36.66,2.38,53.33-7.79,10.8-6.58,19.27-15.74,27.59-25.06,1-1.11,2-2.15,3.08-3.23Q324.11,332.51,324.3,342.36Z" />
			<path class="cls-9" d="M203.72,448.92c-3.62-18.79-5.77-37.8-7.74-56.81-1.49-14.4-3-28.81-2.94-43.31,9.48,6.2,17.82,13.88,26.69,20.86,12,9.47,23.77,19.28,35.66,28.92,1.05.85,2.15,1.59,2.49,3-7.09,6.41-14.2,12.8-21.26,19.24-1.31,1.2-3,2.09-3.58,4-9,6.47-16.54,14.69-25.16,21.64C206.6,447.46,205.51,448.75,203.72,448.92Z" />
			<path class="cls-9" d="M297.94,368.93c8.94-6.35,16.64-14.27,25.88-20.22-.16,18.92-2.22,37.71-4.42,56.48-1.71,14.62-3.39,29.27-6.33,43.72-4.93-2.2-8.31-6.36-12.29-9.75-5.52-4.7-10.86-9.63-16.27-14.45-6.26-7.09-13.83-12.76-20.66-19.25-1.31-1.25-2.65-2.49-4-3.73,1.66-4.15,5.74-5.86,8.8-8.53,8.64-7.53,18.06-14.13,26.34-22.1V371l1.85-1.17h0Z" />
			<path class="cls-4" d="M296.87,369.82,295,371Z" />
			<path class="cls-4" d="M297.94,368.93l-1.09.9Z" />
		</g>
	</g>
</svg>
